<svg width="100" height="100" viewBox="0 0 100 100" fill="none" xmlns="http://www.w3.org/2000/svg">
<rect width="100" height="100" rx="50" fill="#E9EAEE"/>
<path d="M50 24C53.3152 24 56.4946 25.317 58.8388 27.6612C61.183 30.0054 62.5 33.1848 62.5 36.5C62.5 39.8152 61.183 42.9946 58.8388 45.3388C56.4946 47.683 53.3152 49 50 49C46.6848 49 43.5054 47.683 41.1612 45.3388C38.817 42.9946 37.5 39.8152 37.5 36.5C37.5 33.1848 38.817 30.0054 41.1612 27.6612C43.5054 25.317 46.6848 24 50 24ZM50 55.25C63.8125 55.25 75 60.8438 75 67.75V74H25V67.75C25 60.8438 36.1875 55.25 50 55.25Z" fill="#BDBDBD"/>
</svg>
