<svg width="795" height="635" viewBox="0 0 795 635" fill="none" xmlns="http://www.w3.org/2000/svg">
<g clip-path="url(#clip0_5746_18656)">
<path d="M636 159H477V318H636V159Z" fill="#B1093F"/>
<path d="M477 318V159H636L477 318Z" fill="#FF0F43"/>
<path d="M477 318H318V476H477V318Z" fill="#B1093F"/>
<path d="M424 370.05L397.5 396.575L371 370.05L318 317V370.05V396.575V476H371V449.475L397.5 476L424 449.475V476H477V396.575V370.05V317L424 370.05Z" fill="#FF0F43"/>
<path d="M318 476C328.606 476 338.758 471.848 346.333 464.582C353.909 457.316 358 447.232 358 437C358 426.62 353.758 416.684 346.333 409.418C338.758 402.152 328.606 398 318 398V476Z" fill="#B1093F"/>
<path d="M159 159H0V318H159V159Z" fill="#D5093F"/>
<path d="M0 159V318L79 238.575L0 159Z" fill="#B1093F"/>
<path d="M79 159V318L159 238.575L79 159Z" fill="#B1093F"/>
<path d="M159 0H0V159H159V0Z" fill="#B1093F"/>
<path d="M79 159C68.6591 159 58.7614 154.741 51.375 147.289C43.9887 139.837 40 129.646 40 119C40 108.354 44.1364 98.1635 51.375 90.711C58.7614 83.2586 68.6591 79 79 79V159Z" fill="#FF0F43"/>
<path d="M79 159C89.8712 159 100.276 154.741 108.042 147.289C115.807 139.837 120 129.646 120 119C120 108.354 115.651 98.1635 108.042 90.711C100.276 83.2586 89.8712 79 79 79V159Z" fill="#D5093F"/>
<path d="M0 159C10.6061 159 20.7576 154.741 28.3334 147.289C35.9091 139.837 40 129.646 40 119C40 108.354 35.7576 98.1635 28.3334 90.711C20.7576 83.2586 10.6061 79 0 79V159Z" fill="#D5093F"/>
<path d="M636 0H477V159H636V0Z" fill="#B1093F"/>
<path d="M557 159C557.612 158.246 594.318 105.799 605.788 69.327C607.777 64.0521 608.847 58.6265 609 53.0502C609 52.4474 609 51.8446 609 51.2417C609 50.6389 609 50.1867 609 49.5839C608.541 36.3213 602.882 23.6616 593.247 14.4682C583.459 5.27488 570.459 0 557 0C543.388 0 530.388 5.12417 520.753 14.4682C510.965 23.8123 505.306 36.3213 505 49.7346C505 50.1867 505 50.7896 505 51.2417C505 51.8446 505 52.2967 505 52.8995C505.153 58.4758 506.224 64.0521 508.365 69.327C519.682 105.799 556.388 158.246 557 159Z" fill="#D5093F"/>
<path d="M556 92C566.606 92 576.758 87.7947 584.333 80.4354C591.909 73.076 596 63.0133 596 52.5C596 41.9867 591.758 31.924 584.333 24.5646C576.758 17.2053 566.606 13 556 13V92Z" fill="#B1093F"/>
<path d="M795 159H636V318H794.85V159H795Z" fill="#D5093F"/>
<path d="M636 159V318L716 238.575L636 159Z" fill="#FF0F43"/>
<path d="M716 159V318L795 238.575L716 159Z" fill="#B1093F"/>
<path d="M795 0H636V159H794.85V0H795Z" fill="#B1093F"/>
<path d="M776 49H636V119H776V49Z" fill="#D5093F"/>
<path d="M795 95H636V120H794.85V95H795Z" fill="#D5093F"/>
<path d="M636 0H688.59L711 59H636V0Z" fill="#D5093F"/>
<path d="M716 159C726.871 159 737.277 154.741 745.042 147.289C752.807 139.837 757 129.646 757 119C757 108.354 752.652 98.1635 745.042 90.711C737.277 83.2586 726.871 79 716 79V159Z" fill="#FF0F43"/>
<path d="M716 159C705.394 159 695.242 154.741 687.667 147.289C680.091 139.837 676 129.646 676 119C676 108.354 680.242 98.1635 687.667 90.711C695.242 83.2586 705.394 79 716 79V159Z" fill="#FF0F43"/>
<path d="M318 0H159V159H317.85V0H318Z" fill="#B1093F"/>
<path d="M318 159H159V318H317.85V159H318Z" fill="#B1093F"/>
<path d="M278 318H286V198H278V318Z" fill="#FF0F43"/>
<path d="M270 318H278V198H270V318Z" fill="#FF0F43"/>
<path d="M266 116C266 92.2289 242.022 73 212.5 73C182.978 73 159 92.2289 159 116C159 139.771 182.978 159 212.5 159C242.172 159 266 139.771 266 116Z" fill="#FF0F43"/>
<path d="M212 106C235.218 106 254 91.0288 254 72.5C254 53.9712 235.218 39 212 39C188.782 39 170 53.9712 170 72.5C170 91.0288 188.782 106 212 106Z" fill="#FF0F43"/>
<path d="M212.5 58C232.628 58 249 44.9612 249 28.9251C249 12.8889 232.628 0 212.5 0C192.372 0 176 13.0388 176 29.0749C176 45.1111 192.222 58 212.5 58Z" fill="#FF0F43"/>
<path d="M204 318H221V106H204V318Z" fill="#D5093F"/>
<path d="M278 237C288.606 237 298.758 232.848 306.333 225.582C313.909 218.316 318 208.232 318 198C318 187.62 313.758 177.684 306.333 170.418C298.758 163.152 288.606 159 278 159V237Z" fill="#FF0F43"/>
<path d="M278 237C267.129 237 256.723 232.848 248.958 225.582C241.193 218.316 237 208.232 237 198C237 187.62 241.348 177.684 248.958 170.418C256.723 163.152 267.129 159 278 159V237Z" fill="#FF0F43"/>
<path d="M318 318H0V635H318V318Z" fill="#D5093F"/>
<path d="M159 476H0V635H159V476Z" fill="#D5093F"/>
<path d="M318 318L159 476H317.85L318 318Z" fill="#B1093F"/>
<path d="M318 476C307.394 476 297.242 471.848 289.667 464.582C282.091 457.316 278 447.232 278 437C278 426.62 282.242 416.684 289.667 409.418C297.242 402.152 307.394 398 318 398V476Z" fill="#FF0F43"/>
<path d="M159 556H159.148C201.989 556 236.705 591.378 237 635H159V556Z" fill="#B1093F"/>
<path d="M148.396 423.733C145.669 409.355 134.608 397.674 123.85 386.442C122.335 384.794 120.971 383.297 119.456 381.799C111.88 374.311 104.758 366.224 98.243 357.837C80.0606 333.875 79.7576 320.845 79 318V476H130.668C135.669 468.662 140.972 460.425 144.608 451.738C148.548 441.704 149.911 432.119 148.396 423.733Z" fill="#FF0F43"/>
<path d="M10.6189 423.733C13.3064 409.355 24.2056 397.674 34.8061 386.442C36.2992 384.794 37.6429 383.297 39.1359 381.799C46.6011 374.311 53.6184 366.224 60.0384 357.837C77.9549 333.875 78.1042 320.845 79 318V476H28.0875C23.1605 468.662 17.9348 460.425 14.3515 451.738C10.3203 441.704 9.1259 432.119 10.6189 423.733Z" fill="#B1093F"/>
<path d="M131 476H28V635H131V476Z" fill="#B1093F"/>
<path d="M159 556C169.341 556 179.239 551.741 186.625 544.289C194.011 536.836 198 526.494 198 516C198 505.354 193.864 495.164 186.625 487.711C179.239 480.259 169.341 476 159 476V556Z" fill="#B1093F"/>
<path d="M159 556C148.659 556 138.761 551.741 131.375 544.289C123.989 536.836 120 526.494 120 516C120 505.354 124.136 495.164 131.375 487.711C138.761 480.259 148.659 476 159 476V556Z" fill="#FF0F43"/>
<path d="M318 556H237V635H318V556Z" fill="#FF0F43"/>
<path d="M318 476C273.511 476 237.307 511.825 237 556H318V476Z" fill="#FF0F43"/>
<path d="M477 0H318V159H477V0Z" fill="#B1093F"/>
<path d="M318 159H477V106H318V159Z" fill="#D5093F"/>
<path d="M339 106H477V79H339V106Z" fill="#D5093F"/>
<path d="M318 79H477V54H318V79Z" fill="#D5093F"/>
<path d="M439 54H477V26H439V54Z" fill="#D5093F"/>
<path d="M466 26H477V0H466V26Z" fill="#D5093F"/>
<path d="M477 159H318V318H477V159Z" fill="#B1093F"/>
<path d="M477 159C433.377 159 397.876 194.378 397.575 238V317H318V159H477Z" fill="#D5093F"/>
<path d="M398 237H318V318H398V237Z" fill="#FF0F43"/>
<path d="M636 635H795V318H636V635Z" fill="#D5093F"/>
<path d="M636 635H795V476H636V635Z" fill="#B1093F"/>
<path d="M795 318L636 476H794.85L795 318Z" fill="#B1093F"/>
<path d="M636 476C646.606 476 656.758 471.848 664.333 464.582C671.909 457.316 676 447.232 676 437C676 426.62 671.758 416.684 664.333 409.418C656.758 402.152 646.606 398 636 398V476Z" fill="#FF0F43"/>
<path d="M795 556C784.924 556 775.28 551.741 768.083 544.289C760.886 536.836 757 526.494 757 516C757 505.354 761.03 495.164 768.083 487.711C775.28 480.259 784.924 476 795 476V556Z" fill="#D5093F"/>
<path d="M795 556H794.85C751.46 556 716.299 591.378 716 635H795V556Z" fill="#D5093F"/>
<path d="M636 635H716V556H636V635Z" fill="#FF0F43"/>
<path d="M636 476H636.151C680.091 476 715.697 511.825 716 556H636V476Z" fill="#FF0F43"/>
<path d="M477 476H318V635H477V476Z" fill="#B1093F"/>
<path d="M372 476H318V529H372V476Z" fill="#D5093F"/>
<path d="M372 529H318V581H372V529Z" fill="#D5093F"/>
<path d="M424 529H372V581H424V529Z" fill="#D5093F"/>
<path d="M372 581H318V635H372V581Z" fill="#D5093F"/>
<path d="M424 581H372V635H424V581Z" fill="#D5093F"/>
<path d="M477 581H424V635H477V581Z" fill="#D5093F"/>
<path d="M636 318H477V476H636V318Z" fill="#B1093F"/>
<path d="M636 476H477V635H636V476Z" fill="#B1093F"/>
<path d="M491 476H477V635H491V476Z" fill="#D5093F"/>
<path d="M521 377H505V635H521V377Z" fill="#D5093F"/>
<path d="M607 377H593V635H607V377Z" fill="#D5093F"/>
<path d="M593 398H578V635H593V398Z" fill="#D5093F"/>
<path d="M535 398H521V635H535V398Z" fill="#D5093F"/>
<path d="M548 358H535V635H548V358Z" fill="#D5093F"/>
<path d="M578 358H563V635H578V358Z" fill="#D5093F"/>
<path d="M563 318H548V635H563V318Z" fill="#D5093F"/>
<path d="M636 476H621V635H636V476Z" fill="#D5093F"/>
<path d="M505 489H491V635H505V489Z" fill="#D5093F"/>
<path d="M621 489H607V635H621V489Z" fill="#D5093F"/>
<path d="M219.7 230.8V240H209.3V288.3H199.5V240H189V230.8H219.7Z" fill="white"/>
<path d="M238.4 230.8C249.1 230.8 254.8 236.2 254.8 245.6C254.8 251.2 251.7 255.6 247.3 257.2V258.3C252.3 259.9 255.4 264.6 255.4 271.6C255.4 282.2 249.6 288.3 238 288.3H223.8V230.8H238.4ZM233.6 254.2H239C243.4 254.2 245.5 251.9 245.5 247.5V246.1C245.5 241.9 243.2 239.8 239 239.8H233.6V254.2ZM233.6 279.3H238.8C243.6 279.3 246 276.7 246 272.1V269.7C246 264.8 243.8 261.5 238.8 261.5H233.7L233.6 279.3Z" fill="white"/>
<path d="M288.9 229.8C305.6 229.8 319.1 242.4 319.1 259.5C319.1 275.9 306.3 289.3 288.9 289.3C272.3 289.3 258.7 276.7 258.7 259.5C258.7 243.2 271.5 229.8 288.9 229.8ZM288.9 280.1C301.1 280.1 309.3 270.8 309.3 259.5C309.3 247.5 300.4 238.9 288.9 238.9C276.7 238.9 268.5 248.2 268.5 259.5C268.5 271.6 277.5 280.1 288.9 280.1Z" fill="white"/>
<path d="M334.4 230.8V236.1L333.5 247.7H334.7L350.2 230.8H355.7V288.3H345.9V276.9L347.1 246.6H345.9L334.2 258.4V288.3H324.5V230.8H334.4ZM337.8 220.2H337.3C335.5 220.2 334.7 220.8 334.7 222C334.7 223.2 335.6 223.8 337.3 223.8H343.1C344.8 223.8 345.7 223.2 345.7 222C345.7 220.9 344.8 220.2 343.1 220.2H342.6V213H343.9C349 213 353.1 215.8 353.1 220.4C353.1 225.6 348.9 228.4 340.3 228.4C331.7 228.4 327.5 225.6 327.5 220.4C327.5 215.8 331.6 213 336.7 213H338L337.8 220.2Z" fill="white"/>
<path d="M404.9 230.8V240H390V288.3H380.2V230.8H404.9Z" fill="white"/>
<path d="M434.8 229.8C451.4 229.8 465 242.4 465 259.5C465 275.9 452.2 289.3 434.8 289.3C418.1 289.3 404.6 276.7 404.6 259.5C404.6 243.2 417.4 229.8 434.8 229.8ZM434.8 280.1C447 280.1 455.2 270.8 455.2 259.5C455.2 247.5 446.3 238.9 434.8 238.9C422.6 238.9 414.4 248.2 414.4 259.5C414.4 271.6 423.4 280.1 434.8 280.1Z" fill="white"/>
<path d="M484.1 230.8C494.8 230.8 501.5 237.8 501.5 251.3C501.5 263.6 494.8 271 484.1 271H480.3V288.3H470.4V230.8H484.1ZM480.3 263.3H484.1C488.8 263.3 491.9 259.4 491.9 252.7V249.6C491.9 243.2 488.9 240 484.1 240H480.3V263.3Z" fill="white"/>
<path d="M534.7 229.8C551.3 229.8 564.9 242.4 564.9 259.5C564.9 275.9 552.2 289.3 534.7 289.3C518.1 289.3 504.5 276.7 504.5 259.5C504.5 243.2 517.3 229.8 534.7 229.8ZM534.7 280.1C546.9 280.1 555.1 270.8 555.1 259.5C555.1 247.5 546.2 238.9 534.7 238.9C522.5 238.9 514.3 248.2 514.3 259.5C514.4 271.6 523.3 280.1 534.7 280.1Z" fill="white"/>
<path d="M598 230.8V279.1H605.2V282.7L598.2 302.3H595V288.3H565.7V286.5L574.2 239.6V230.8H598ZM581.6 240L576.9 279.1H588.3V240H581.6Z" fill="white"/>
<path d="M427.4 316.2H365.3V323.1H427.4V316.2Z" fill="white"/>
<path d="M247.3 351V360.2H236.9V408.5H227.1V360.2H216.7V351H247.3Z" fill="white"/>
<path d="M266 351C276.7 351 282.4 356.4 282.4 365.8C282.4 371.4 279.3 375.8 274.9 377.4V378.5C279.9 380.1 283 384.8 283 391.8C283 402.4 277.2 408.5 265.6 408.5H251.4V351H266ZM261.2 374.4H266.6C271 374.4 273.1 372.1 273.1 367.7V366.3C273.1 362.1 270.9 360 266.6 360H261.2V374.4ZM261.2 399.4H266.3C271.1 399.4 273.5 396.8 273.5 392.2V389.8C273.5 384.9 271.3 381.6 266.3 381.6H261.2V399.4Z" fill="white"/>
<path d="M316.5 350C333.1 350 346.7 362.6 346.7 379.8C346.7 396.2 334 409.5 316.5 409.5C299.8 409.5 286.3 396.9 286.3 379.8C286.3 363.3 299.1 350 316.5 350ZM316.5 400.3C328.7 400.3 336.9 391 336.9 379.8C336.9 367.8 328 359.3 316.5 359.3C304.3 359.3 296.1 368.6 296.1 379.8C296.1 391.8 305.1 400.3 316.5 400.3Z" fill="white"/>
<path d="M372.5 379.2H361.5V400.1H379.8V409.3H351.7V351.7H378.2V360.9H361.5V373.2L371.3 370.7L372.5 379.2ZM352.8 337.2H362.1V346.4H352.8V337.2ZM368.4 337.2H377.7V346.4H368.4V337.2Z" fill="white"/>
<path d="M431.1 351V399.3H438.3V402.9L431.3 422.5H428.1V408.5H398.8V406.7L407.3 359.8V351H431.1ZM414.7 360.2L410 399.3H421.4V360.2H414.7Z" fill="white"/>
<path d="M462.4 378.4H451.4V399.3H469.7V408.5H441.6V351H468.1V360.2H451.4V372.5L461.2 370L462.4 378.4Z" fill="white"/>
<path d="M509.6 351V408.5H499.8V360.2H491.2L490.4 386.1C489.9 404.9 485.7 409 479.5 409C478.1 409 476.7 408.8 475.5 408.2C474.2 407.6 473.1 406.8 472.2 405.8V395.5H474.5C474.5 398 475.4 399.4 477.4 399.4C479.7 399.4 480.9 397.5 481.4 392.4L484.5 360.2V351.1H509.6V351Z" fill="white"/>
<path d="M545.1 350C561.7 350 575.3 362.6 575.3 379.8C575.3 396.2 562.5 409.5 545.1 409.5C528.5 409.5 514.9 396.9 514.9 379.8C514.9 363.3 527.7 350 545.1 350ZM545.1 400.3C557.3 400.3 565.5 391 565.5 379.8C565.5 367.8 556.6 359.3 545.1 359.3C532.9 359.3 524.7 368.6 524.7 379.8C524.7 391.8 533.7 400.3 545.1 400.3Z" fill="white"/>
<path d="M317.78 561.64H311.32V574H309.5V560H319.6V574H317.78V561.64ZM327.821 564.54C330.461 564.54 332.281 566.52 332.281 569.4C332.281 572.22 330.381 574.24 327.721 574.24C326.301 574.24 325.021 573.52 324.421 572.38V578.26H322.701V564.78H324.421V566.42C325.021 565.26 326.341 564.54 327.821 564.54ZM327.481 572.68C329.261 572.68 330.541 571.32 330.541 569.4C330.541 567.48 329.261 566.1 327.481 566.1C325.641 566.1 324.341 567.46 324.341 569.4C324.341 571.32 325.641 572.68 327.481 572.68ZM340.998 574V567.56L336.258 573.28V574H334.518V564.78H336.258V571.3L340.998 565.56V564.78H342.738V574H340.998ZM346.749 574H344.609L348.069 569.36L344.649 564.78H346.789L349.069 568.08L351.369 564.78H353.509L350.089 569.36L353.549 574H351.409L349.069 570.62L346.749 574ZM359.203 574.24C356.203 574.24 354.403 572.08 354.403 569.4C354.403 566.7 356.203 564.54 359.203 564.54C362.183 564.54 364.003 566.7 364.003 569.4C364.003 572.08 362.183 574.24 359.203 574.24ZM359.203 572.68C361.143 572.68 362.263 571.24 362.263 569.4C362.263 567.54 361.143 566.1 359.203 566.1C357.263 566.1 356.123 567.54 356.123 569.4C356.123 571.24 357.263 572.68 359.203 572.68ZM374.02 564.78V572.36H374.92V576.4H373.2V574H366.82V576.4H365V572.36H365.92C366.46 572.06 366.78 571.3 366.78 570V564.78H374.02ZM367.84 572.56H372.28V566.24H368.52V569.94C368.52 571.06 368.24 571.92 367.84 572.56ZM383.771 574V567.56L379.031 573.28V574H377.291V564.78H379.031V571.3L383.771 565.56V564.78H385.511V574H383.771ZM393.561 574V564.78H397.901C400.221 564.78 400.781 566.16 400.781 567.2C400.781 568.26 399.881 569.12 398.721 569.24C399.921 569.3 400.921 570.16 400.921 571.5C400.921 572.5 400.241 574 397.801 574H393.561ZM395.241 568.68H397.781C398.521 568.68 399.041 568.06 399.041 567.36C399.041 566.62 398.521 566.02 397.761 566.02H395.241V568.68ZM397.841 569.92H395.241V572.76H397.841C398.601 572.76 399.201 572.12 399.201 571.38C399.201 570.6 398.601 569.92 397.841 569.92ZM411.904 569.22L416.244 574H414.084L410.164 569.66V574H408.424V564.78H410.164V568.78H410.504C410.944 568.78 411.284 568.6 411.684 567.98L413.184 565.88C413.804 565.02 414.224 564.68 415.164 564.68H415.904V566.26H415.504C415.004 566.26 414.744 566.44 414.384 566.96L413.524 568.2C412.964 569.02 412.624 569.22 412.004 569.22H411.904ZM421.781 574.24C418.781 574.24 416.981 572.08 416.981 569.4C416.981 566.7 418.781 564.54 421.781 564.54C424.761 564.54 426.581 566.7 426.581 569.4C426.581 572.08 424.761 574.24 421.781 574.24ZM421.781 572.68C423.721 572.68 424.841 571.24 424.841 569.4C424.841 567.54 423.721 566.1 421.781 566.1C419.841 566.1 418.701 567.54 418.701 569.4C418.701 571.24 419.841 572.68 421.781 572.68ZM430.474 574H428.814V564.78H431.434L434.394 571.64L437.354 564.78H439.954V574H438.294V566.48L434.974 574H433.814L430.474 566.48V574ZM446.775 574.24C443.835 574.24 442.215 572.12 442.215 569.4C442.215 566.68 443.955 564.54 446.815 564.54C448.275 564.54 449.475 565.28 450.055 566.42V564.78H451.775V574H450.055V572.38C449.475 573.52 448.155 574.24 446.775 574.24ZM447.015 572.68C449.035 572.68 450.135 571.18 450.135 569.4C450.135 567.62 449.035 566.1 447.015 566.1C445.115 566.1 443.935 567.5 443.935 569.4C443.935 571.28 445.115 572.68 447.015 572.68ZM456.511 574H454.771V564.78H456.511V568.62H461.331V564.78H463.051V574H461.331V570.08H456.511V574ZM473.981 564.78V572.36H474.881V576.4H473.161V574H466.781V576.4H464.961V572.36H465.881C466.421 572.06 466.741 571.3 466.741 570V564.78H473.981ZM467.801 572.56H472.241V566.24H468.481V569.94C468.481 571.06 468.201 571.92 467.801 572.56ZM483.852 569.52V564.78H485.572V574.18C485.572 575.64 485.132 576.76 484.332 577.5C483.592 578.14 482.572 578.5 481.312 578.5C479.992 578.5 478.912 578.16 478.192 577.54C477.532 576.98 477.172 576.18 477.152 575.16H478.892C478.972 576.28 479.572 577.04 481.292 577.04C482.852 577.04 483.852 576.16 483.852 574.06V572.34C483.312 573.46 482.212 574.22 480.652 574.22C478.252 574.22 477.152 572.62 477.152 570.28V564.78H478.872V569.92C478.872 571.56 479.412 572.68 481.232 572.68C483.012 572.68 483.852 571.18 483.852 569.52ZM298.249 585.64H291.789V598H289.969V584H300.069V598H298.249V585.64ZM308.29 588.54C310.93 588.54 312.75 590.52 312.75 593.4C312.75 596.22 310.85 598.24 308.19 598.24C306.77 598.24 305.49 597.52 304.89 596.38V602.26H303.17V588.78H304.89V590.42C305.49 589.26 306.81 588.54 308.29 588.54ZM307.95 596.68C309.73 596.68 311.01 595.32 311.01 593.4C311.01 591.48 309.73 590.1 307.95 590.1C306.11 590.1 304.81 591.46 304.81 593.4C304.81 595.32 306.11 596.68 307.95 596.68ZM318.806 598.24C315.866 598.24 314.246 596.12 314.246 593.4C314.246 590.68 315.986 588.54 318.846 588.54C320.306 588.54 321.506 589.28 322.086 590.42V588.78H323.806V598H322.086V596.38C321.506 597.52 320.186 598.24 318.806 598.24ZM319.046 596.68C321.066 596.68 322.166 595.18 322.166 593.4C322.166 591.62 321.066 590.1 319.046 590.1C317.146 590.1 315.966 591.5 315.966 593.4C315.966 595.28 317.146 596.68 319.046 596.68ZM326.803 598V588.78H331.143C333.463 588.78 334.023 590.16 334.023 591.2C334.023 592.26 333.123 593.12 331.963 593.24C333.163 593.3 334.163 594.16 334.163 595.5C334.163 596.5 333.483 598 331.043 598H326.803ZM328.483 592.68H331.023C331.763 592.68 332.283 592.06 332.283 591.36C332.283 590.62 331.763 590.02 331.003 590.02H328.483V592.68ZM331.083 593.92H328.483V596.76H331.083C331.843 596.76 332.443 596.12 332.443 595.38C332.443 594.6 331.843 593.92 331.083 593.92ZM343.087 598V591.56L338.347 597.28V598H336.607V588.78H338.347V595.3L343.087 589.56V588.78H344.827V598H343.087ZM346.938 588.78H354.318V590.4H351.478V598H349.758V590.4H346.938V588.78ZM364.103 592.88C364.103 593.22 364.103 593.48 364.063 593.9H356.923C356.963 595.68 358.063 596.72 359.823 596.72C361.043 596.72 361.883 596.24 362.263 595.36H364.003C363.683 597.06 361.983 598.24 359.823 598.24C356.983 598.24 355.203 596.36 355.203 593.38C355.203 590.46 357.003 588.54 359.743 588.54C362.343 588.54 364.103 590.34 364.103 592.88ZM356.923 592.56H362.403C362.403 590.94 361.403 589.94 359.723 589.94C358.043 589.94 357.003 591 356.923 592.56ZM365.336 598.08V596.44H365.696C366.616 596.44 367.196 595.82 367.196 594.12V588.78H374.236V598H372.516V590.4H368.916V594.06C368.916 596.7 367.836 598.08 366.056 598.08H365.336ZM377.232 598V588.78H378.952V592H381.372C383.352 592 384.592 593.34 384.592 595C384.592 596.62 383.232 598 381.332 598H377.232ZM381.172 593.38H378.952V596.62H381.152C382.192 596.62 382.792 595.92 382.792 595C382.792 594.08 382.212 593.38 381.172 593.38ZM390.506 598.24C387.666 598.24 385.926 596.26 385.926 593.4C385.926 590.54 387.666 588.56 390.506 588.56C392.986 588.56 394.586 589.92 394.806 591.98H393.066C392.826 590.76 391.946 590.12 390.486 590.12C388.726 590.12 387.646 591.34 387.646 593.4C387.646 595.44 388.726 596.68 390.486 596.68C391.946 596.68 392.826 596.04 393.066 594.88H394.806C394.586 596.9 392.986 598.24 390.506 598.24ZM395.649 588.78H403.029V590.4H400.189V598H398.469V590.4H395.649V588.78ZM405.162 598V588.78H409.502C411.822 588.78 412.382 590.16 412.382 591.2C412.382 592.26 411.482 593.12 410.322 593.24C411.522 593.3 412.522 594.16 412.522 595.5C412.522 596.5 411.842 598 409.402 598H405.162ZM406.842 592.68H409.382C410.122 592.68 410.642 592.06 410.642 591.36C410.642 590.62 410.122 590.02 409.362 590.02H406.842V592.68ZM409.442 593.92H406.842V596.76H409.442C410.202 596.76 410.802 596.12 410.802 595.38C410.802 594.6 410.202 593.92 409.442 593.92ZM418.787 598.24C415.847 598.24 414.227 596.12 414.227 593.4C414.227 590.68 415.967 588.54 418.827 588.54C420.287 588.54 421.487 589.28 422.067 590.42V588.78H423.787V598H422.067V596.38C421.487 597.52 420.167 598.24 418.787 598.24ZM419.027 596.68C421.047 596.68 422.147 595.18 422.147 593.4C422.147 591.62 421.047 590.1 419.027 590.1C417.127 590.1 415.947 591.5 415.947 593.4C415.947 595.28 417.127 596.68 419.027 596.68ZM433.682 598H431.942V584H433.702L438.502 595.42L443.302 584H445.042V598H443.302V587.78L439.202 598H437.802L433.682 587.72V598ZM452.21 598.24C449.21 598.24 447.41 596.08 447.41 593.4C447.41 590.7 449.21 588.54 452.21 588.54C455.19 588.54 457.01 590.7 457.01 593.4C457.01 596.08 455.19 598.24 452.21 598.24ZM452.21 596.68C454.15 596.68 455.27 595.24 455.27 593.4C455.27 591.54 454.15 590.1 452.21 590.1C450.27 590.1 449.13 591.54 449.13 593.4C449.13 595.24 450.27 596.68 452.21 596.68ZM463.201 598.24C460.361 598.24 458.621 596.26 458.621 593.4C458.621 590.54 460.361 588.56 463.201 588.56C465.681 588.56 467.281 589.92 467.501 591.98H465.761C465.521 590.76 464.641 590.12 463.181 590.12C461.421 590.12 460.341 591.34 460.341 593.4C460.341 595.44 461.421 596.68 463.181 596.68C464.641 596.68 465.521 596.04 465.761 594.88H467.501C467.281 596.9 465.681 598.24 463.201 598.24ZM473.212 593.22L477.552 598H475.392L471.472 593.66V598H469.732V588.78H471.472V592.78H471.812C472.252 592.78 472.592 592.6 472.992 591.98L474.492 589.88C475.112 589.02 475.532 588.68 476.472 588.68H477.212V590.26H476.812C476.312 590.26 476.052 590.44 475.692 590.96L474.832 592.2C474.272 593.02 473.932 593.22 473.312 593.22H473.212ZM479.635 598V588.78H483.975C486.295 588.78 486.855 590.16 486.855 591.2C486.855 592.26 485.955 593.12 484.795 593.24C485.995 593.3 486.995 594.16 486.995 595.5C486.995 596.5 486.315 598 483.875 598H479.635ZM481.315 592.68H483.855C484.595 592.68 485.115 592.06 485.115 591.36C485.115 590.62 484.595 590.02 483.835 590.02H481.315V592.68ZM483.915 593.92H481.315V596.76H483.915C484.675 596.76 485.275 596.12 485.275 595.38C485.275 594.6 484.675 593.92 483.915 593.92ZM489.439 598V588.78H491.159V592H493.579C495.559 592 496.799 593.34 496.799 595C496.799 596.62 495.439 598 493.539 598H489.439ZM499.799 598H498.079V588.78H499.799V598ZM493.379 593.38H491.159V596.62H493.359C494.399 596.62 494.999 595.92 494.999 595C494.999 594.08 494.419 593.38 493.379 593.38ZM504.839 593.8H503.099V584H504.839V593.8ZM503.959 598.14C503.139 598.14 502.519 597.48 502.519 596.68C502.519 595.88 503.139 595.22 503.959 595.22C504.779 595.22 505.439 595.88 505.439 596.68C505.439 597.48 504.779 598.14 503.959 598.14Z" fill="white"/>
</g>
<defs>
<clipPath id="clip0_5746_18656">
<rect width="795" height="635" rx="8" fill="white"/>
</clipPath>
</defs>
</svg>
