<svg width="24" height="24" viewBox="0 0 24 24" fill="none" xmlns="http://www.w3.org/2000/svg">
<path d="M21.44 11.55L12.25 20.74C11.1242 21.8659 9.59723 22.4984 8.00505 22.4984C6.41286 22.4984 4.88589 21.8659 3.76005 20.74C2.6342 19.6142 2.00171 18.0872 2.00171 16.495C2.00171 14.9029 2.6342 13.3759 3.76005 12.25L12.95 3.06004C13.7006 2.30948 14.7186 1.88782 15.78 1.88782C16.8415 1.88782 17.8595 2.30948 18.61 3.06004C19.3606 3.8106 19.7823 4.82859 19.7823 5.89004C19.7823 6.9515 19.3606 7.96948 18.61 8.72004L9.41005 17.91C9.03476 18.2853 8.52577 18.4962 7.99505 18.4962C7.46432 18.4962 6.95533 18.2853 6.58005 17.91C6.20476 17.5348 5.99393 17.0258 5.99393 16.495C5.99393 15.9643 6.20476 15.4553 6.58005 15.08L15.07 6.60004" stroke="#1A1230" stroke-linecap="round" stroke-linejoin="round"/>
</svg>
