<svg viewBox="0 0 150 150" fill="none" xmlns="http://www.w3.org/2000/svg">
<g clip-path="url(#clip0_5619_17365)">
<path d="M93.3647 31.5149C89.2978 27.4563 84.4713 24.2384 79.1608 22.045C73.8504 19.8516 68.1598 18.7257 62.4142 18.7315C50.8104 18.7432 39.6865 23.364 31.4897 31.5774C23.2928 39.7909 18.6945 50.9241 18.7062 62.5279C18.7179 74.1317 23.3387 85.2556 31.5522 93.4525M46.7647 103.352C54.6614 106.402 63.2732 107.095 71.556 105.348C79.8388 103.6 87.4368 99.4877 93.4288 93.5083C99.4208 87.5289 103.549 79.9395 105.314 71.6604C107.079 63.3813 106.404 54.7681 103.371 46.8649" stroke="#D7D8DE" stroke-width="5" stroke-linecap="round" stroke-linejoin="round"/>
<path d="M94 93L132 131" stroke="#D7D8DE" stroke-width="5" stroke-linecap="round" stroke-linejoin="round"/>
<path d="M132 6L7 131" stroke="#D7D8DE" stroke-width="5" stroke-linecap="round" stroke-linejoin="round"/>
</g>
<defs>
<clipPath id="clip0_5619_17365">
<rect width="150" height="150" fill="white"/>
</clipPath>
</defs>
</svg>
