<svg width="150" height="150" viewBox="0 0 150 150" fill="none" xmlns="http://www.w3.org/2000/svg">
<g clip-path="url(#clip0_5500_18164)">
<path d="M50 43.75C50 50.3804 52.6339 56.7393 57.3223 61.4277C62.0107 66.1161 68.3696 68.75 75 68.75C81.6304 68.75 87.9893 66.1161 92.6777 61.4277C97.3661 56.7393 100 50.3804 100 43.75C100 37.1196 97.3661 30.7607 92.6777 26.0723C87.9893 21.3839 81.6304 18.75 75 18.75C68.3696 18.75 62.0107 21.3839 57.3223 26.0723C52.6339 30.7607 50 37.1196 50 43.75Z" stroke="#D7D8DE" stroke-width="5" stroke-linecap="round" stroke-linejoin="round"/>
<path d="M37.5 131.25V118.75C37.5 112.12 40.1339 105.761 44.8223 101.072C49.5107 96.3839 55.8696 93.75 62.5 93.75H71.875" stroke="#D7D8DE" stroke-width="5" stroke-linecap="round" stroke-linejoin="round"/>
<path d="M93.75 112.5C93.75 117.473 95.7254 122.242 99.2417 125.758C102.758 129.275 107.527 131.25 112.5 131.25C117.473 131.25 122.242 129.275 125.758 125.758C129.275 122.242 131.25 117.473 131.25 112.5C131.25 107.527 129.275 102.758 125.758 99.2417C122.242 95.7254 117.473 93.75 112.5 93.75C107.527 93.75 102.758 95.7254 99.2417 99.2417C95.7254 102.758 93.75 107.527 93.75 112.5Z" stroke="#D7D8DE" stroke-width="5" stroke-linecap="round" stroke-linejoin="round"/>
<path d="M126.25 126.25L137.5 137.5" stroke="#D7D8DE" stroke-width="5" stroke-linecap="round" stroke-linejoin="round"/>
</g>
<defs>
<clipPath id="clip0_5500_18164">
<rect width="150" height="150" fill="white"/>
</clipPath>
</defs>
</svg>
